<svg width="70" height="70" viewBox="0 0 70 70" fill="none" xmlns="http://www.w3.org/2000/svg">
<path d="M35.0001 46.6667C36.5472 46.6667 38.0309 47.2812 39.1249 48.3752C40.2188 49.4692 40.8334 50.9529 40.8334 52.5C40.8334 54.0471 40.2188 55.5308 39.1249 56.6248C38.0309 57.7187 36.5472 58.3333 35.0001 58.3333C33.453 58.3333 31.9693 57.7187 30.8753 56.6248C29.7813 55.5308 29.1667 54.0471 29.1667 52.5C29.1667 50.9529 29.7813 49.4692 30.8753 48.3752C31.9693 47.2812 33.453 46.6667 35.0001 46.6667ZM35.0001 29.1667C36.5472 29.1667 38.0309 29.7812 39.1249 30.8752C40.2188 31.9692 40.8334 33.4529 40.8334 35C40.8334 36.5471 40.2188 38.0308 39.1249 39.1248C38.0309 40.2187 36.5472 40.8333 35.0001 40.8333C33.453 40.8333 31.9693 40.2187 30.8753 39.1248C29.7813 38.0308 29.1667 36.5471 29.1667 35C29.1667 33.4529 29.7813 31.9692 30.8753 30.8752C31.9693 29.7812 33.453 29.1667 35.0001 29.1667ZM35.0001 11.6667C36.5472 11.6667 38.0309 12.2812 39.1249 13.3752C40.2188 14.4692 40.8334 15.9529 40.8334 17.5C40.8334 19.0471 40.2188 20.5308 39.1249 21.6248C38.0309 22.7187 36.5472 23.3333 35.0001 23.3333C33.453 23.3333 31.9693 22.7187 30.8753 21.6248C29.7813 20.5308 29.1667 19.0471 29.1667 17.5C29.1667 15.9529 29.7813 14.4692 30.8753 13.3752C31.9693 12.2812 33.453 11.6667 35.0001 11.6667Z" fill="black"/>
</svg>
